# xmcd
#
# Track frame offsets:
# 150
# 17738
# 31219
# 44570
# 59015
# 71551
# 85975
# 101187
# 117202
# 131170
# 143385
# 160632
# 172646
# 186924
#
# Disc length: 2665 seconds
#
#
# Revision: 0
# Processed by: cddbd v1.5.2PL0 Copyright (c) Steve Scherf et al.
# Submitted via: FreeRIP 2.951 
#
DISCID=bb0a670e
DTITLE=Chico Rey e Paraná - Popularidade - Chico Rey e Paraná
DYEAR=1900
DGENRE=Sertaneja
TTITLE0=Quem será seu outro amor
TTITLE1=Amor rebelde
TTITLE2=Alma transparente
TTITLE3=Tranque a porta e me beije
TTITLE4=Perder você é abraçar a solidão
TTITLE5=Leão domado
TTITLE6=Canarinho prisioneiro
TTITLE7=Gostoso venedo
TTITLE8=Encanto e magia
TTITLE9=Rotina de pobre
TTITLE10=Operário-vida-viola
TTITLE11=Colchão queimado
TTITLE12=Country clube sertão
TTITLE13=Zé gatão
EXTD=
EXTT0=
EXTT1=
EXTT2=
EXTT3=
EXTT4=
EXTT5=
EXTT6=
EXTT7=
EXTT8=
EXTT9=
EXTT10=
EXTT11=
EXTT12=
EXTT13=
PLAYORDER=
